<svg xmlns="http://www.w3.org/2000/svg" viewBox="0 0 120 120" role="img" aria-label="ISKCON Guayaquil">
  <defs>
    <linearGradient id="iskconG" x1="0%" y1="0%" x2="100%" y2="100%">
      <stop offset="0%" style="stop-color:#f97316"/>
      <stop offset="100%" style="stop-color:#fbbf24"/>
    </linearGradient>
  </defs>
  <circle cx="60" cy="60" r="56" fill="url(#iskconG)" opacity="0.15"/>
  <path fill="url(#iskconG)" d="M60 18c-8 14-22 22-22 38 0 12 10 22 22 22s22-10 22-22c0-16-14-24-22-38zm0 54c-7 0-12-5-12-12 0-8 6-14 12-22 6 8 12 14 12 22 0 7-5 12-12 12z"/>
  <circle cx="60" cy="52" r="6" fill="#fff"/>
</svg>
